<svg
        xmlns="http://www.w3.org/2000/svg"
        viewBox="0 0 1440 320"
        className="absolute top-[190px] left-0 w-full h-16 z-0"
        preserveAspectRatio="none"
      >
        <defs>
          <filter id="waveShadow" x="-50%" y="-50%" width="200%" height="200%">
            <feDropShadow dx="0" dy="3" stdDeviation="4" floodColor="rgba(0,0,0,0.25)" />
          </filter>
        </defs>
        <path
          fill="#f9b8d4"
          filter="url(#waveShadow)"
          d="M0,192L15,202.7C30,213,60,235,90,229.3C120,224,150,192,180,160C210,128,240,96,270,80C300,64,330,64,360,85.3C390,107,420,149,450,176C480,203,510,213,540,229.3C570,245,600,267,630,261.3C660,256,690,224,720,186.7C750,149,780,107,810,96C840,85,870,107,900,106.7C930,107,960,85,990,74.7C1020,64,1050,64,1080,53.3C1110,43,1140,21,1170,42.7C1200,64,1230,128,1260,165.3C1290,203,1320,213,1350,202.7C1380,192,1410,160,1425,144L1440,128L1440,0L0,0Z"
        />
      </svg>